<svg width="331" height="331" viewBox="0 0 331 331" fill="none" xmlns="http://www.w3.org/2000/svg">
<path d="M80.6809 235.838C92.4038 226.873 105.506 219.805 119.987 214.633C134.468 209.461 149.639 206.875 165.5 206.875C181.36 206.875 196.531 209.461 211.012 214.633C225.493 219.805 238.595 226.873 250.318 235.838C258.364 226.413 264.627 215.725 269.11 203.772C273.592 191.819 275.833 179.062 275.833 165.5C275.833 134.929 265.087 108.897 243.595 87.4047C222.103 65.9127 196.071 55.1667 165.5 55.1667C134.928 55.1667 108.896 65.9127 87.4044 87.4047C65.9123 108.897 55.1663 134.929 55.1663 165.5C55.1663 179.062 57.4075 191.819 61.8898 203.772C66.3721 215.725 72.6358 226.413 80.6809 235.838ZM165.5 179.292C151.938 179.292 140.502 174.637 131.193 165.328C121.884 156.018 117.229 144.583 117.229 131.021C117.229 117.459 121.884 106.023 131.193 96.7141C140.502 87.4047 151.938 82.75 165.5 82.75C179.061 82.75 190.497 87.4047 199.806 96.7141C209.116 106.023 213.77 117.459 213.77 131.021C213.77 144.583 209.116 156.018 199.806 165.328C190.497 174.637 179.061 179.292 165.5 179.292ZM165.5 303.417C146.421 303.417 128.492 299.796 111.712 292.556C94.9323 285.315 80.3361 275.489 67.9236 263.076C55.5111 250.664 45.6846 236.067 38.4439 219.288C31.2033 202.508 27.583 184.579 27.583 165.5C27.583 146.422 31.2033 128.492 38.4439 111.713C45.6846 94.9327 55.5111 80.3365 67.9236 67.924C80.3361 55.5115 94.9323 45.6849 111.712 38.4443C128.492 31.2037 146.421 27.5834 165.5 27.5834C184.578 27.5834 202.507 31.2037 219.287 38.4443C236.067 45.6849 250.663 55.5115 263.076 67.924C275.488 80.3365 285.315 94.9327 292.555 111.713C299.796 128.492 303.416 146.422 303.416 165.5C303.416 184.579 299.796 202.508 292.555 219.288C285.315 236.067 275.488 250.664 263.076 263.076C250.663 275.489 236.067 285.315 219.287 292.556C202.507 299.796 184.578 303.417 165.5 303.417Z" fill="#1D1B20"/>
</svg>
